<svg xmlns="http://www.w3.org/2000/svg" version="1.1" xmlns:xlink="http://www.w3.org/1999/xlink" xmlns:svgjs="http://svgjs.dev/svgjs" width="1500" height="1500" viewBox="0 0 1500 1500"><rect width="1500" height="1500" fill="#8dbdff"></rect><g transform="matrix(0.6666666666666666,0,0,0.6666666666666666,250.16964033086037,145.1568151147099)"><svg viewBox="0 0 204 247" data-background-color="#8dbdff" preserveAspectRatio="xMidYMid meet" height="1816" width="1500" xmlns="http://www.w3.org/2000/svg" xmlns:xlink="http://www.w3.org/1999/xlink"><g id="tight-bounds" transform="matrix(1,0,0,1,-0.03460662749552057,-0.09999999999999432)"><svg viewBox="0 0 204.069213254991 247.2" height="247.2" width="204.069213254991"><g><svg viewBox="0 0 395.52 479.11462214454696" height="247.2" width="204.069213254991"><g transform="matrix(1,0,0,1,0,274.2555452214701)"><svg viewBox="0 0 395.52 204.8590769230769" height="204.8590769230769" width="395.52"><g id="textblocktransform"><svg viewBox="0 0 395.52 204.8590769230769" height="204.8590769230769" width="395.52" id="textblock"><g><svg viewBox="0 0 395.52 204.8590769230769" height="204.8590769230769" width="395.52"><g transform="matrix(1,0,0,1,0,0)"><svg width="395.52" viewBox="3.8 -29.55 68.24000000000001 35.35" height="204.8590769230769" data-palette-color="#374151"><path d="M11.6 0L3.8 0 3.8-29.55 11.6-29.55Q13.4-29.55 14.8-29.03 16.2-28.5 17.03-27.1 17.85-25.7 17.85-23.05L17.85-23.05 17.85-6.5Q17.85-3.9 17.07-2.48 16.3-1.05 14.9-0.53 13.5 0 11.6 0L11.6 0ZM4.6-28.8L4.6-0.8 11.6-0.8Q14.15-0.8 15.6-1.98 17.05-3.15 17.05-6.75L17.05-6.75 17.05-22.75Q17.05-26.15 15.63-27.48 14.2-28.8 11.6-28.8L11.6-28.8 4.6-28.8ZM30.15 0.35L30.15 0.35Q28 0.35 26.77-0.23 25.55-0.8 25-1.75 24.45-2.7 24.3-3.88 24.15-5.05 24.15-6.2L24.15-6.2 24.15-18.6Q24.15-20.15 24.5-21.65 24.85-23.15 26.12-24.15 27.4-25.15 30.15-25.15L30.15-25.15Q32.95-25.15 34.2-24.2 35.45-23.25 35.77-21.75 36.1-20.25 36.1-18.6L36.1-18.6 36.1-13.15 24.95-13.15 24.95-6.35Q24.95-4.9 25.22-3.53 25.5-2.15 26.6-1.3 27.7-0.45 30.15-0.45L30.15-0.45Q32.6-0.45 33.67-1.3 34.75-2.15 35.02-3.5 35.3-4.85 35.3-6.35L35.3-6.35 35.3-8.35 36.1-8.35 36.1-6.2Q36.1-4.65 35.8-3.15 35.5-1.65 34.25-0.65 33 0.35 30.15 0.35ZM24.95-18.15L24.95-13.95 35.3-13.95 35.3-18.15Q35.3-19.9 35.05-21.3 34.8-22.7 33.72-23.53 32.65-24.35 30.15-24.35L30.15-24.35Q27.95-24.35 26.82-23.58 25.7-22.8 25.32-21.43 24.95-20.05 24.95-18.15L24.95-18.15ZM47.9 0.35L47.9 0.35Q45.75 0.35 44.52-0.23 43.3-0.8 42.75-1.75 42.2-2.7 42.05-3.88 41.9-5.05 41.9-6.2L41.9-6.2 41.9-18.6Q41.9-20.15 42.25-21.65 42.6-23.15 43.87-24.15 45.15-25.15 47.9-25.15L47.9-25.15Q50.7-25.15 51.95-24.2 53.2-23.25 53.52-21.75 53.85-20.25 53.85-18.6L53.85-18.6 53.85-13.15 42.7-13.15 42.7-6.35Q42.7-4.9 42.97-3.53 43.25-2.15 44.35-1.3 45.45-0.45 47.9-0.45L47.9-0.45Q50.35-0.45 51.42-1.3 52.5-2.15 52.77-3.5 53.05-4.85 53.05-6.35L53.05-6.35 53.05-8.35 53.85-8.35 53.85-6.2Q53.85-4.65 53.55-3.15 53.25-1.65 52-0.65 50.75 0.35 47.9 0.35ZM42.7-18.15L42.7-13.95 53.05-13.95 53.05-18.15Q53.05-19.9 52.8-21.3 52.55-22.7 51.47-23.53 50.4-24.35 47.9-24.35L47.9-24.35Q45.7-24.35 44.57-23.58 43.45-22.8 43.07-21.43 42.7-20.05 42.7-18.15L42.7-18.15ZM60.89 5.8L60.09 5.8 60.09-24.75 60.79-24.75 60.89-22.25Q61.14-23.25 62.32-24.2 63.49-25.15 66.09-25.15L66.09-25.15Q68.19-25.15 69.42-24.58 70.64-24 71.19-23.03 71.74-22.05 71.89-20.9 72.04-19.75 72.04-18.6L72.04-18.6 72.04-6.2Q72.04-4.65 71.74-3.15 71.44-1.65 70.19-0.65 68.94 0.35 66.09 0.35L66.09 0.35Q63.59 0.35 62.39-0.38 61.19-1.1 60.89-1.9L60.89-1.9 60.89 5.8ZM66.09-0.45L66.09-0.45Q68.04-0.45 69.09-1 70.14-1.55 70.59-2.43 71.04-3.3 71.14-4.33 71.24-5.35 71.24-6.35L71.24-6.35 71.24-18.45Q71.24-19.95 71.02-21.3 70.79-22.65 69.74-23.5 68.69-24.35 66.09-24.35L66.09-24.35Q63.69-24.35 62.59-23.48 61.49-22.6 61.19-21.2 60.89-19.8 60.89-18.15L60.89-18.15 60.89-6.35Q60.89-5.35 60.99-4.33 61.09-3.3 61.54-2.43 61.99-1.55 63.07-1 64.14-0.45 66.09-0.45Z" opacity="1" transform="matrix(1,0,0,1,0,0)" fill="#374151" class="wordmark-text-0" data-fill-palette-color="primary" id="text-0"></path></svg></g></svg></g></svg></g></svg></g><g transform="matrix(1,0,0,1,75.54432,0)"><svg viewBox="0 0 244.43135999999998 225.89323377777777" height="225.89323377777777" width="244.43135999999998"><g><svg xmlns="http://www.w3.org/2000/svg" xmlns:xlink="http://www.w3.org/1999/xlink" version="1.1" x="8" y="0" viewBox="5 6 90 89" enable-background="new 0 0 100 100" xml:space="preserve" height="225.89323377777777" width="228.43135999999998" class="icon-icon-0" data-fill-palette-color="accent" id="icon-0"><path d="M81.777 46L78 29 67 35 65 16 61 22 44 6 33 18 34 25 25 20 14.407 46H5V50H14.19L14.706 52.708 17 53.473 19.842 52.526A0.5 0.5 0 0 1 20.158 52.526L23 53.473 25.842 52.526A0.5 0.5 0 0 1 26.158 52.526L29.158 53.526A0.501 0.501 0 0 1 28.842 54.475L26 53.527 23.158 54.474A0.5 0.5 0 0 1 22.842 54.474L20 53.527 17.158 54.474A0.5 0.5 0 0 1 16.842 54.474L14.921 53.833 18 70 24 68 24.424 74.792 27 71 24.578 77.25 25 84 34 83 37.981 87.777 40 78 39.37 89.443 44 95 52 89 54 84 62 86 64.037 79.887 62.469 72.592 64.946 77.167 67 71 79 77 81.423 54.387 81.158 54.475A0.5 0.5 0 0 1 80.842 54.475L78 53.527 75.158 54.474A0.5 0.5 0 0 1 74.842 54.474L72 53.527 69.158 54.474A0.501 0.501 0 0 1 68.841 53.525L71.841 52.525A0.5 0.5 0 0 1 72.157 52.525L75 53.473 77.842 52.526A0.5 0.5 0 0 1 78.158 52.526L81 53.473 81.54 53.293 81.893 50H95V46zM43.474 59.158A0.5 0.5 0 0 1 42.842 59.475L40 58.527 37.158 59.474A0.5 0.5 0 0 1 36.842 59.474L34 58.527 31.158 59.474A0.5 0.5 0 0 1 30.842 59.474L28 58.527 25.158 59.474A0.501 0.501 0 0 1 24.842 58.525L27.842 57.525A0.5 0.5 0 0 1 28.158 57.525L31 58.473 33.842 57.526A0.5 0.5 0 0 1 34.158 57.526L37 58.473 39.842 57.526A0.5 0.5 0 0 1 40.158 57.526L43.158 58.526C43.42 58.613 43.562 58.896 43.474 59.158M52.842 54.475L50 53.527 47.158 54.474A0.5 0.5 0 0 1 46.842 54.474L44 53.527 41.158 54.474A0.501 0.501 0 0 1 40.842 53.525L43.842 52.525A0.5 0.5 0 0 1 44.158 52.525L47 53.473 49.842 52.526A0.5 0.5 0 0 1 50.158 52.526L53 53.473 55.842 52.526A0.5 0.5 0 0 1 56.158 52.526L59.158 53.526A0.501 0.501 0 0 1 58.842 54.475L56 53.527 53.158 54.474A0.5 0.5 0 0 1 52.842 54.475M68.842 57.525A0.5 0.5 0 0 1 69.158 57.525L72.158 58.525A0.501 0.501 0 0 1 71.842 59.475L69 58.527 66.158 59.474A0.5 0.5 0 0 1 65.842 59.474L63 58.527 60.158 59.474A0.5 0.5 0 0 1 59.842 59.474L57 58.527 54.158 59.474A0.501 0.501 0 0 1 53.841 58.525L56.841 57.525A0.5 0.5 0 0 1 57.157 57.525L60 58.473 62.842 57.526A0.5 0.5 0 0 1 63.158 57.526L66 58.473zM18.292 46L25 23 35 28 39 39 35 19 44 8 52 16 55 31 54 18 61 26 64 21 66 37 71.805 33.833 72 40 73.561 32.876 77 31 77.938 46z" fill="#374151" data-fill-palette-color="accent"></path><path d="M14.158 52.525A0.5 0.5 0 0 0 13.842 52.525L10.842 53.525A0.501 0.501 0 0 0 11.158 54.474L14 53.527 14.921 53.834 14.706 52.708z" fill="#374151" data-fill-palette-color="accent"></path><path d="M84 53.527L86.842 54.474A0.503 0.503 0 0 0 87.475 54.158 0.5 0.5 0 0 0 87.159 53.525L84.159 52.525A0.5 0.5 0 0 0 83.843 52.525L81.541 53.293 81.424 54.387z" fill="#374151" data-fill-palette-color="accent"></path></svg></g></svg></g><g></g></svg></g><defs></defs></svg><rect width="204.069213254991" height="247.2" fill="none" stroke="none" visibility="hidden"></rect></g></svg></g></svg>